<?xml version="1.0" encoding="UTF-8" standalone="no"?>
<!-- Created with Inkscape (http://www.inkscape.org/) -->

<svg
   width="1000"
   height="1122.5197"
   viewBox="0 0 264.58333 296.99999"
   version="1.1"
   id="svg1"
   inkscape:version="1.4.2 (f4327f4, 2025-05-13)"
   sodipodi:docname="crosscom-logo.svg"
   xmlns:inkscape="http://www.inkscape.org/namespaces/inkscape"
   xmlns:sodipodi="http://sodipodi.sourceforge.net/DTD/sodipodi-0.dtd"
   xmlns:xlink="http://www.w3.org/1999/xlink"
   xmlns="http://www.w3.org/2000/svg"
   xmlns:svg="http://www.w3.org/2000/svg">
  <sodipodi:namedview
     id="namedview1"
     pagecolor="#ffffff"
     bordercolor="#000000"
     borderopacity="0.25"
     inkscape:showpageshadow="2"
     inkscape:pageopacity="0.0"
     inkscape:pagecheckerboard="0"
     inkscape:deskcolor="#d1d1d1"
     inkscape:document-units="mm"
     inkscape:zoom="0.34876894"
     inkscape:cx="388.50937"
     inkscape:cy="766.98344"
     inkscape:window-width="1680"
     inkscape:window-height="1027"
     inkscape:window-x="-8"
     inkscape:window-y="-8"
     inkscape:window-maximized="1"
     inkscape:current-layer="layer1" />
  <defs
     id="defs1">
    <linearGradient
       id="linearGradient2"
       inkscape:collect="always">
      <stop
         style="stop-color:#56cbdc;stop-opacity:1;"
         offset="0"
         id="stop2" />
      <stop
         style="stop-color:#8ed7e6;stop-opacity:1;"
         offset="1"
         id="stop3" />
    </linearGradient>
    <linearGradient
       inkscape:collect="always"
       xlink:href="#linearGradient2"
       id="linearGradient3"
       x1="-27.810343"
       y1="146.03448"
       x2="304.7069"
       y2="146.03448"
       gradientUnits="userSpaceOnUse"
       gradientTransform="translate(-6.1566027,2.4655122)" />
  </defs>
  <g
     inkscape:label="Capa 1"
     inkscape:groupmode="layer"
     id="layer1">
    <rect
       style="fill:url(#linearGradient3);fill-opacity:1;stroke:none;stroke-width:1"
       id="rect2"
       width="331.51724"
       height="325.44827"
       x="-33.466953"
       y="-14.22414"
       ry="18.190104" />
    <g
       id="g3"
       transform="matrix(0.70909551,0,0,0.60882352,41.606038,58.436106)">
      <path
         style="fill:#e48383;fill-opacity:0.872077;stroke:none;stroke-width:0.974042"
         d="M 75.103447,275.1299 133.82631,18.965517 175.24138,21.615492 120.84547,276.89654 Z"
         id="path3" />
      <path
         style="fill:#e48383;fill-opacity:0.872077;stroke:none;stroke-width:0.41946"
         d="m 23.604309,70.319639 127.677731,-21.84931 90.04641,0.22603 -118.2699,21.77396 z"
         id="path3-1" />
      <g
         id="text1"
         style="opacity:1"
         transform="scale(0.93727799,1.0669193)">
        <path
           style="font-size:182.934px;font-family:'MV Boli';-inkscape-font-specification:'MV Boli';text-align:end;direction:rtl;baseline-shift:baseline;text-anchor:end;display:inline;overflow:visible;vector-effect:none;fill:#a82424;fill-opacity:1;stroke-width:1.26063;enable-background:accumulate;stop-color:#000000;stop-opacity:1"
           d="m 15.416845,208.26816 q 0,-6.59763 1.560535,-14.90155 1.560537,-8.41766 5.461876,-16.26655 5.350409,-10.92021 11.926952,-21.04416 6.576545,-10.23769 13.48749,-18.76911 6.910944,-8.64517 13.82189,-15.24279 6.910942,-6.71138 13.153084,-10.46521 l -0.111438,0.11373 q 3.901332,-2.50255 8.248545,-5.23261 4.347212,-2.73005 8.917359,-5.00509 4.570133,-2.275049 9.251742,-3.753825 4.6816,-1.478776 9.25175,-1.478776 4.6816,0 8.91736,1.933793 4.23573,1.933778 7.3568,5.346348 3.23255,3.29881 5.01601,7.73515 1.89493,4.43634 1.89493,9.44144 0,3.52631 -0.44586,5.57385 -0.33441,1.93379 -1.22614,2.95756 -0.78026,1.02377 -2.11787,1.25128 -1.22613,0.22749 -2.89813,0.22749 -2.45227,0 -3.90135,-1.02377 -1.33759,-1.13752 -2.22933,-2.6163 -0.78027,-1.59253 -1.22614,-3.41257 -0.44587,-1.93377 -1.11466,-3.41255 -0.55734,-1.59254 -1.56054,-2.61631 -0.89174,-1.13752 -2.56375,-1.13752 -4.45866,0 -9.69761,2.04754 -5.12747,2.04753 -10.58935,5.46011 -5.350413,3.41256 -10.812279,7.8489 -5.350417,4.32258 -10.254954,8.87267 -4.904551,4.55008 -9.140286,8.98643 -4.124272,4.43633 -7.133878,7.96264 -4.458673,5.80137 -8.13708,11.83023 -3.678406,5.91512 -6.35361,12.17149 -2.675203,6.14261 -4.124274,12.74025 -1.449068,6.48387 -1.449068,13.53651 0,5.4601 1.449068,9.55518 1.560537,4.09508 3.344007,7.05264 2.117868,3.41256 5.238941,4.7776 3.121072,1.25126 7.46828,1.25126 9.474676,0 17.500297,-1.82003 8.02561,-1.82004 15.382424,-4.89135 7.356814,-3.07131 14.379222,-7.28014 7.02242,-4.20883 14.4907,-8.98641 h 2.89813 q 1.44907,0 2.89815,0.79626 1.56053,0.79625 2.67519,2.04753 1.22614,1.25127 1.89494,2.84381 0.78027,1.59254 0.78027,3.29881 0,3.75383 -2.89813,7.50765 -2.89815,3.64007 -7.46828,7.05264 -4.45868,3.2988 -10.1435,6.25637 -5.6848,2.95756 -11.258137,5.2326 -5.461881,2.27504 -10.254956,3.86758 -4.793075,1.59252 -7.691221,2.16129 -2.452269,0.56876 -4.793075,1.13752 -2.229331,0.45499 -5.350401,1.02377 -3.121072,0.45499 -7.468281,0.79627 -4.347208,0.2275 -10.923751,0.2275 -4.012808,0 -7.356812,-1.25129 -3.344007,-1.36501 -6.01921,-3.07129 -2.563738,-1.82005 -4.458674,-3.75384 -1.78347,-1.93378 -2.898139,-3.29879 -6.576543,-7.84892 -9.586149,-15.47032 -3.009605,-7.62138 -3.009605,-16.72156 z"
           id="path1" />
        <path
           style="font-size:182.934px;font-family:'MV Boli';-inkscape-font-specification:'MV Boli';text-align:end;direction:rtl;baseline-shift:baseline;text-anchor:end;display:inline;overflow:visible;vector-effect:none;fill:#a82424;fill-opacity:1;stroke-width:1.07045;enable-background:accumulate;stop-color:#000000"
           d="m 147.01098,216.32005 q 0,-5.51236 1.34674,-12.45034 1.34673,-7.03301 4.71357,-13.59081 4.61738,-9.1239 10.29291,-17.58252 5.67553,-8.55365 11.63964,-15.68171 5.96411,-7.22309 11.92823,-12.73544 5.96411,-5.6074 11.35106,-8.74375 l -0.0962,0.095 q 3.36682,-2.09089 7.11845,-4.37187 3.75162,-2.28098 7.69564,-4.18179 3.94401,-1.90082 7.98421,-3.13634 4.04021,-1.23553 7.98423,-1.23553 4.0402,0 7.69564,1.6157 3.65541,1.61568 6.34889,4.46691 2.78967,2.75617 4.32879,6.46276 1.63532,3.70659 1.63532,7.88837 0,2.94626 -0.38478,4.657 -0.28859,1.61569 -1.05815,2.47105 -0.67337,0.85537 -1.82771,1.04546 -1.05814,0.19007 -2.50108,0.19007 -2.11629,0 -3.36685,-0.85536 -1.15433,-0.95041 -1.9239,-2.18594 -0.67336,-1.33057 -1.05815,-2.85123 -0.38478,-1.61568 -0.96195,-2.8512 -0.48098,-1.33058 -1.34673,-2.18595 -0.76957,-0.9504 -2.21251,-0.9504 -3.84781,0 -8.36899,1.71073 -4.425,1.71073 -9.13857,4.56195 -4.61739,2.85122 -9.33095,6.55782 -4.61739,3.61154 -8.84998,7.41316 -4.2326,3.80162 -7.88803,7.50822 -3.55922,3.70658 -6.1565,6.65284 -3.84782,4.84708 -7.02227,9.88423 -3.17444,4.94211 -5.48314,10.16935 -2.30868,5.13219 -3.55922,10.64456 -1.25054,5.41731 -1.25054,11.30984 0,4.56194 1.25054,7.98341 1.34673,3.42146 2.88586,5.89252 1.82771,2.85122 4.52119,3.99171 2.69346,1.04544 6.44508,1.04544 8.17661,0 15.10269,-1.52065 6.92606,-1.52065 13.27496,-4.08675 6.34889,-2.5661 12.4092,-6.0826 6.06032,-3.5165 12.50542,-7.50821 h 2.50107 q 1.25054,0 2.50109,0.66529 1.34673,0.66527 2.30868,1.71072 1.05816,1.04544 1.63533,2.37602 0.67336,1.33058 0.67336,2.75618 0,3.13634 -2.50107,6.27268 -2.50109,3.04131 -6.44509,5.89253 -3.84782,2.75617 -8.75379,5.22723 -4.90597,2.47106 -9.71574,4.37188 -4.71358,1.9008 -8.84998,3.23138 -4.1364,1.33056 -6.63749,1.80577 -2.11629,0.4752 -4.1364,0.95041 -1.9239,0.38015 -4.61737,0.85536 -2.69347,0.38015 -6.44509,0.66529 -3.75163,0.19008 -9.42715,0.19008 -3.46304,0 -6.3489,-1.04546 -2.88586,-1.14048 -5.19455,-2.56609 -2.2125,-1.52065 -3.84782,-3.13634 -1.53912,-1.6157 -2.50108,-2.75617 -5.67553,-6.55782 -8.2728,-12.92555 -2.59728,-6.36771 -2.59728,-13.97096 z"
           id="path1-8" />
      </g>
    </g>
  </g>
</svg>
